
<svg version="1.1" id="Livello_1" xmlns="http://www.w3.org/2000/svg" xmlns:xlink="http://www.w3.org/1999/xlink" x="0px" y="0px"
	 viewBox="0 0 375 114" style="enable-background:new 0 0 375 114;" xml:space="preserve">
<style type="text/css">
	.st0{fill:#8C8C8F;}
	.st1{fill:#007BC0;}
	.st2{fill:#868689;}
	.st3{fill:#F7DD00;}
	.st4{fill:#EA8A00;}
</style>
<g>
	<g>
		<path class="st0" d="M284.1,38.1c-0.4,0.9-0.7,2.8-1.1,2.5c1.1,9.9,0.2,21.7,0.6,32.9h5.6c0.5,0-0.1-1.4,0.3-1.4L286,35.2
			C285.9,36.3,284.7,36.9,284.1,38.1"/>
		<path class="st0" d="M244.4,42.7v0.6C244.4,43.1,244.4,42.9,244.4,42.7"/>
		<path class="st1" d="M288.7,41c-1.1-5-2.8-5.8-2.8-5.8c-4.9-4.6-14.9-4.3-18.2,1.7c-3-5-12.4-6.7-17.2-2.6v-2.4h-6.2v0.2v0.2v39.5
			v1.7h6.2V39.8c2.6-4.5,11.7-3.8,13.4,1.3v32.3h0.2h5.7V40c2.3-4.7,10.6-3.9,12.9,0.3c0.1,0.2,0.9,2.3,0.9,10.7v22.5h5.9V42.7
			L288.7,41z"/>
		<path class="st2" d="M303,65c-2.1,2.9-7.9,3.5-10.7,1c-0.9-0.8-2.3-2.7-2.1-5c0.3-2.8,3.7-4.2,5.7-5.2c2.6-1.3,4.7-2.3,7-3.3V65z
			 M339.5,58.2h-6.4c0,1.6,0.2,3.2,0,4.8c-0.8,5.9-11.3,5.8-12.9,0c0-0.2,0-25.6,0-25.6h19.3v-6.2c-0.5,0-1.1,0-1.7,0h-17.6v-6h0
			h-6.5v6h-3.5h-2.8v4.8c-6.6-8.7-25.8-5.2-23.5,10.9h6.5c0-4,0.5-6.7,2.7-8.3c3.7-2.5,10.4-0.5,10.2,4.8c-0.1,2.5-1.6,3.6-2.7,4.3
			c-3.7,2.3-9.5,3.1-13.4,6.4c-3.8,3.2-4.3,10.1-1.3,14.5c3.6,5.2,10.8,6.4,17.2,3.4v1.6h0.3c0,0,0.1,0,0.1,0h6.1c0-1,0-2.1,0-3.2
			V45.4c0-2.4-0.1-3.5-0.3-4.8c-0.2-1.2-0.6-2.3-1.1-3.3h1.9h3.5v13c0,4.3-0.5,8.9,0,13.2C315.5,78.4,343,77.2,339.5,58.2"/>
		<path class="st2" d="M235.8,56.3c0.9-0.5,8.4-3.1,8.4-3.7V65c-3,4-11.9,3.3-12.8-2.3C230.9,59.2,233.8,57.3,235.8,56.3
			 M193.8,65.6c-3.9,4.3-10.1,2.7-12.6-1.9c-1.1-2.1-0.8-6.4-0.8-11c0-3.2,0.1-7.1,0.5-8.9c0.5-2.6,3.9-6.1,6.7-6.2
			c2.5-0.1,4.5,1.5,6.2,3.1V65.6z M168.3,65c-2.1,2.9-7.9,3.5-10.7,1c-0.9-0.8-2.3-2.7-2.1-5c0.3-2.8,3.7-4.2,5.7-5.2
			c2.6-1.3,4.7-2.3,7-3.3V65z M233.9,32c-1.6,0.5-3.2,1.2-4.6,2.3c-0.7,0.5-3.6,2.6-3.6,3.8v-6.8H219v33.9c-2.8,3-10.8,3.8-12.4-1
			c-0.3-0.8-0.4-2.7-0.5-5.3V31.1h-5.6h-2.6h-4.1h-0.2c-0.1,0.9,0.2,2.3-0.2,2.9c-6.6-4.9-16.9-0.7-19,6.6
			c-2.3-14.2-28.1-12.4-25.5,6.2h6.5c0-4,0.5-6.7,2.7-8.3c3.7-2.5,10.4-0.5,10.2,4.8c-0.1,2.5-1.6,3.6-2.7,4.3
			c-3.7,2.3-9.5,3.1-13.4,6.4c-3.8,3.2-4.3,10.1-1.3,14.5c3.6,5.2,10.9,6.4,17.4,3.3c0.1,0.5-0.3,1.8,0.3,1.7h6.1c0-1,0-2.1,0-3.2
			v-3.2c0-0.6,0.1-1.2,0.2-1.7c2,7.9,12,10,18.8,6.4v8.9h6.4h0.3V65.5c2.2,7.6,12.1,10.3,18.5,6.1v0.8c0,0.3-0.1,0.6,0,0.8v0.2h0.3
			h6.4v-7.2c2.4,7,12,9,18.7,5.6V43.3c-0.1,0.8-0.4,1.7-1.1,2.7c-0.5,0.6-1,1.2-1.6,1.6c-1.6,1.2-3.5,1.7-5.3,2.4
			c-2.6,0.9-5.2,1.8-7.5,3.5c-1.2,0.9-2.3,2.1-3.1,3.6c-0.1-3.3-0.3-7,0-10.2c1.8-0.3,3.6,0,5.4-0.1c-0.2,0,0.6-4.3,0.8-4.7
			c0.5-1.4,1.3-2.5,2.3-3.3c1.9-1.5,4.4-1.8,6.5-0.8c1.3,0.6,3.6,2.6,3.6,4.6V32.3C241,31,237.3,30.9,233.9,32"/>
		<path class="st1" d="M146,32c0.1,0.5-0.4,0.7-0.6,1c-4.2,5.2-10.3,9-17.4,11.2c-7.7,2.4-18,2.4-26.4,0.4C97.8,43.6,94,42.1,90,41
			c-11.5-3.1-25.1-5.5-39.9-4.3c-0.1,0-0.1,0-0.1,0.1c-0.1,0,0-0.2,0.1-0.2c8.4-6.2,19.1-12.4,33.8-11.4c4.5,0.3,8.7,1.2,12.6,2.4
			c3.7,1.2,7.2,2.9,10.9,4.2c3.7,1.3,7.7,2.4,12.1,2.9C129,35.9,138.1,34.4,146,32"/>
		<path class="st3" d="M130,47.9c0.1,0.5-0.4,0.7-0.6,1c-4.2,5.2-10.3,9-17.4,11.2c-7.7,2.4-18,2.4-26.4,0.4
			C81.8,59.5,78,58,74,56.9c-11.5-3.1-25.1-5.5-39.9-4.3c-0.1,0-0.1,0-0.1,0.1c-0.1,0,0-0.2,0.1-0.2c8.4-6.2,19.1-12.4,33.8-11.4
			c4.5,0.3,8.7,1.2,12.6,2.4c3.7,1.2,7.2,2.9,10.9,4.2c3.7,1.3,7.7,2.4,12.1,2.9C113.1,51.8,122.1,50.3,130,47.9"/>
		<path class="st4" d="M113.2,64.7c0.1,0.5-0.4,0.7-0.6,1c-4.2,5.2-10.3,9-17.4,11.2c-7.7,2.4-18,2.4-26.4,0.4
			c-3.8-0.9-7.6-2.4-11.6-3.5c-11.5-3.1-25.1-5.5-39.9-4.3c-0.1,0-0.1,0-0.1,0.1c-0.1,0,0-0.2,0.1-0.2c8.4-6.2,19.1-12.4,33.8-11.4
			c4.5,0.3,8.7,1.2,12.6,2.4c3.7,1.2,7.2,2.9,10.9,4.2c3.7,1.3,7.7,2.4,12.1,2.9C96.3,68.6,105.4,67.2,113.2,64.7"/>
	</g>
</g>
</svg>
